<svg width="1200" height="475" viewBox="0 0 1200 475" xmlns="http://www.w3.org/2000/svg">
  <defs>
    <!-- Neon Glow Filters -->
    <filter id="glow-cyan" x="-50%" y="-50%" width="200%" height="200%">
      <feGaussianBlur stdDeviation="4" result="coloredBlur"/>
      <feMerge>
        <feMergeNode in="coloredBlur"/>
        <feMergeNode in="SourceGraphic"/>
      </feMerge>
    </filter>
    <filter id="glow-purple" x="-50%" y="-50%" width="200%" height="200%">
      <feGaussianBlur stdDeviation="6" result="coloredBlur"/>
      <feMerge>
        <feMergeNode in="coloredBlur"/>
        <feMergeNode in="SourceGraphic"/>
      </feMerge>
    </filter>
    <filter id="crt-scanlines">
        <feTurbulence type="fractalNoise" baseFrequency="0.8" numOctaves="1" result="noise" />
        <feColorMatrix type="matrix" values="1 0 0 0 0  0 1 0 0 0  0 0 1 0 0  0 0 0 0.1 0" in="noise" result="coloredNoise" />
    </filter>
    
    <!-- Grid Pattern -->
    <pattern id="grid" width="40" height="40" patternUnits="userSpaceOnUse">
      <path d="M 40 0 L 0 0 0 40" fill="none" stroke="#2e0f45" stroke-width="1"/>
    </pattern>
    
    <!-- Gradients -->
    <linearGradient id="bg-gradient" x1="0%" y1="0%" x2="0%" y2="100%">
      <stop offset="0%" stop-color="#050505"/>
      <stop offset="100%" stop-color="#11061f"/>
    </linearGradient>
  </defs>

  <!-- Background -->
  <rect width="100%" height="100%" fill="url(#bg-gradient)"/>
  
  <!-- Retro Grid (Perspective) -->
  <g transform="translate(0, 200)">
     <path d="M0 275 L600 0 L1200 275" fill="none" stroke="#b026ff" stroke-width="2" opacity="0.3" />
     <path d="M-200 275 L600 0 L1400 275" fill="none" stroke="#b026ff" stroke-width="2" opacity="0.3" />
     <line x1="0" y1="50" x2="1200" y2="50" stroke="#b026ff" stroke-width="1" opacity="0.2" />
     <line x1="0" y1="100" x2="1200" y2="100" stroke="#b026ff" stroke-width="1" opacity="0.3" />
     <line x1="0" y1="160" x2="1200" y2="160" stroke="#b026ff" stroke-width="2" opacity="0.4" />
     <line x1="0" y1="230" x2="1200" y2="230" stroke="#b026ff" stroke-width="2" opacity="0.6" />
  </g>

  <!-- Invader Sprites (Pixel Art style) -->
  <g filter="url(#glow-cyan)" fill="#0891b2" opacity="0.4">
      <!-- Left Invader -->
      <rect x="100" y="80" width="10" height="10"/> <rect x="150" y="80" width="10" height="10"/>
      <rect x="110" y="90" width="40" height="10"/>
      <rect x="100" y="100" width="60" height="10"/>
      <rect x="90" y="110" width="80" height="10"/>
      <rect x="100" y="120" width="10" height="10"/> <rect x="150" y="120" width="10" height="10"/>
      <rect x="110" y="130" width="10" height="10"/> <rect x="140" y="130" width="10" height="10"/>
      
      <!-- Right Invader -->
      <rect x="1040" y="150" width="10" height="10"/> <rect x="1090" y="150" width="10" height="10"/>
      <rect x="1050" y="160" width="40" height="10"/>
      <rect x="1040" y="170" width="60" height="10"/>
      <rect x="1030" y="180" width="80" height="10"/>
      <rect x="1040" y="190" width="10" height="10"/> <rect x="1090" y="190" width="10" height="10"/>
      <rect x="1050" y="200" width="10" height="10"/> <rect x="1080" y="200" width="10" height="10"/>
  </g>

  <!-- Main Title -->
  <text x="50%" y="45%" dominant-baseline="middle" text-anchor="middle" 
        font-family="Courier New, monospace" font-weight="bold" font-style="italic" font-size="110" 
        fill="#ffffff" stroke="#06b6d4" stroke-width="3" filter="url(#glow-cyan)">
    NEON
  </text>
  <text x="50%" y="65%" dominant-baseline="middle" text-anchor="middle" 
        font-family="Courier New, monospace" font-weight="bold" font-style="italic" font-size="110" 
        fill="#06b6d4" stroke="#ffffff" stroke-width="1" filter="url(#glow-cyan)">
    INVADERS
  </text>

  <!-- Subtitle -->
  <text x="50%" y="82%" dominant-baseline="middle" text-anchor="middle" 
        font-family="Arial, sans-serif" font-weight="bold" font-size="30" letter-spacing="10"
        fill="#d8b4fe" filter="url(#glow-purple)">
    AI EDITION
  </text>

  <!-- CRT Scanline Overlay -->
  <rect width="100%" height="100%" fill="url(#grid)" opacity="0.1"/>
  <rect width="100%" height="100%" fill="black" opacity="0.1">
    <animate attributeName="opacity" values="0.1;0.12;0.1" dur="0.2s" repeatCount="indefinite"/>
  </rect>
  
</svg>